<svg width="160" height="100" viewBox="0 0 160 100" fill="none" xmlns="http://www.w3.org/2000/svg">
<path d="M30 20C26.5939 19.9999 23.2125 20.5781 20 21.71V0H0V80H20V50C20 47.3478 21.0536 44.8043 22.9289 42.9289C24.8043 41.0536 27.3478 40 30 40C32.6522 40 35.1957 41.0536 37.0711 42.9289C38.9464 44.8043 40 47.3478 40 50V80H60V50C60 42.0435 56.8393 34.4129 51.2132 28.7868C45.5871 23.1607 37.9565 20 30 20Z" fill="#0F1316"/>
<path d="M80 20C74.0666 20 68.2664 21.7595 63.3329 25.0559C58.3994 28.3524 54.5543 33.0377 52.2836 38.5195C50.013 44.0013 49.4189 50.0333 50.5765 55.8527C51.734 61.6721 54.5912 67.0176 58.7868 71.2132C62.9824 75.4088 68.3279 78.266 74.1473 79.4236C79.9667 80.5811 85.9987 79.987 91.4805 77.7164C96.9623 75.4458 101.648 71.6006 104.944 66.6671C108.241 61.7336 110 55.9334 110 50C110 42.0435 106.839 34.4129 101.213 28.7868C95.5871 23.1607 87.9565 20 80 20ZM80 60C78.0222 60 76.0888 59.4135 74.4443 58.3147C72.7998 57.2159 71.5181 55.6541 70.7612 53.8268C70.0043 51.9996 69.8063 49.9889 70.1922 48.0491C70.578 46.1093 71.5304 44.3275 72.9289 42.9289C74.3275 41.5304 76.1093 40.578 78.0491 40.1921C79.9889 39.8063 81.9996 40.0043 83.8268 40.7612C85.6541 41.5181 87.2159 42.7998 88.3147 44.4443C89.4135 46.0888 90 48.0222 90 50C90 52.6522 88.9464 55.1957 87.0711 57.0711C85.1957 58.9464 82.6522 60 80 60Z" fill="#0F1316"/>
<path d="M130 20C122.044 20 114.413 23.1607 108.787 28.7868C103.161 34.4129 100 42.0435 100 50V100H120V78.29C124.119 79.7435 128.505 80.2802 132.853 79.8625C137.2 79.4448 141.404 78.0829 145.171 75.8718C148.937 73.6608 152.176 70.6539 154.66 67.0614C157.144 63.4689 158.813 59.3773 159.552 55.0726C160.29 50.7678 160.08 46.3538 158.935 42.1387C157.791 37.9237 155.74 34.0095 152.926 30.6694C150.111 27.3294 146.602 24.6441 142.642 22.8012C138.682 20.9584 134.368 20.0024 130 20ZM130 60C128.022 60 126.089 59.4135 124.444 58.3147C122.8 57.2159 121.518 55.6541 120.761 53.8268C120.004 51.9996 119.806 49.9889 120.192 48.0491C120.578 46.1093 121.53 44.3275 122.929 42.9289C124.327 41.5304 126.109 40.578 128.049 40.1921C129.989 39.8063 132 40.0043 133.827 40.7612C135.654 41.5181 137.216 42.7998 138.315 44.4443C139.414 46.0888 140 48.0222 140 50C140 52.6522 138.946 55.1957 137.071 57.0711C135.196 58.9464 132.652 60 130 60Z" fill="#0F1316"/>
</svg>
