<svg width="362" height="362" viewBox="0 0 362 362" fill="none" xmlns="http://www.w3.org/2000/svg">
<path d="M361.122 180.561C361.122 80.8399 280.282 0 180.561 0C80.8399 0 0 80.8399 0 180.561C0 280.282 80.8399 361.122 180.561 361.122C280.282 361.122 361.122 280.282 361.122 180.561Z" fill="black"/>
<mask id="mask0_1_13" style="mask-type:alpha" maskUnits="userSpaceOnUse" x="0" y="0" width="362" height="362">
<path d="M361.122 180.561C361.122 80.8399 280.282 0 180.561 0C80.8399 0 0 80.8399 0 180.561C0 280.282 80.8399 361.122 180.561 361.122C280.282 361.122 361.122 280.282 361.122 180.561Z" fill="black"/>
</mask>
<g mask="url(#mask0_1_13)">
<path d="M66.7702 143.253C50.3992 149.031 86.0322 207.859 106.897 257.613C81.8852 286.502 59.5482 357.76 102.882 387.613C146.217 417.466 232.485 394.836 275.017 387.613C281.036 361.13 297.888 298.536 254.554 257.613C278.629 184.587 318.352 104.974 284.647 105.937C250.943 106.9 202.863 186.544 184.807 244.725C146.288 160.463 87.2342 136.031 66.7702 143.253Z" fill="white" stroke="white" stroke-width="2.40748"/>
<path d="M143.531 309.968C150.149 309.968 155.515 302.815 155.515 293.99C155.515 285.166 150.149 278.012 143.531 278.012C136.913 278.012 131.548 285.166 131.548 293.99C131.548 302.815 136.913 309.968 143.531 309.968Z" fill="black"/>
<path d="M223.421 309.968C230.039 309.968 235.405 302.815 235.405 293.99C235.405 285.166 230.039 278.012 223.421 278.012C216.803 278.012 211.438 285.166 211.438 293.99C211.438 302.815 216.803 309.968 223.421 309.968Z" fill="black"/>
<path d="M182.144 339.261C188.027 339.261 192.796 335.088 192.796 329.94C192.796 324.793 188.027 320.62 182.144 320.62C176.261 320.62 171.492 324.793 171.492 329.94C171.492 335.088 176.261 339.261 182.144 339.261Z" fill="black"/>
</g>
</svg>
